<svg width="252" height="312" viewBox="0 0 252 312" fill="none" xmlns="http://www.w3.org/2000/svg">
<path fill-rule="evenodd" clip-rule="evenodd" d="M5.06125 6.53425C1.24885 16.0182 0.35216 38.1456 3.27805 50.5502C7.95656 70.3932 21.57 92.2818 42.0308 112.861C63.9735 134.931 86.5174 150.825 122.82 169.818C143.619 180.698 144.684 182.567 125.579 174.657C73.5227 153.104 30.1715 123.014 8.29865 93.2529C-1.10496 80.4581 -1.89976 81.1861 2.83116 98.2613C8.9799 120.454 21.6748 137.409 42.4908 151.23C65.1119 166.249 80.2348 172.654 138.833 192.04C181.455 206.141 195.326 212.52 206.067 222.962C210.32 227.097 213.799 229.971 213.799 229.35C213.799 224.35 210.176 211.315 207.207 205.637C203.242 198.05 204.124 196.69 209.38 202.287L212.747 205.871L216.976 199.485C223.129 190.197 233.947 183.722 244.609 182.952C251.737 182.435 252.883 181.992 251.475 180.295C250.545 179.175 246.948 177.544 243.482 176.671C237.137 175.074 231.678 171.039 235.86 171.039C236.981 171.039 239.396 172.089 241.227 173.372C243.058 174.654 244.894 175.366 245.307 174.954C247.034 173.226 240.818 166.685 235.879 165.034C230.215 163.139 196.331 162.311 196.331 164.067C196.331 166.392 202.977 171.061 207.491 171.909C210.146 172.406 211.958 173.398 211.517 174.111C210.227 176.199 206.431 175.623 199.559 172.296L193.133 169.184L187.213 175.106L181.294 181.027L165.886 173.229C157.411 168.94 141.635 161.052 130.826 155.698C100.515 140.689 84.644 129.651 65.256 110.097C36.4236 81.0172 24.4274 58.7893 9.75722 7.26222L7.68872 0L5.06125 6.53425ZM13.6191 150.668C17.7605 164.054 28.1772 173.752 50.037 184.566C72.7221 195.79 106.502 205.434 137.099 209.421C145.74 210.546 153.202 211.861 153.682 212.34C154.813 213.473 133.204 212.152 119.181 210.233C93.4522 206.71 72.8153 201.712 48.8855 193.209C41.0468 190.422 34.2124 188.566 33.6957 189.081C33.1804 189.598 35.2372 192.56 38.2665 195.662C50.596 208.291 73.054 215.163 116.998 219.752C161.074 224.356 161.647 224.519 134.466 224.721C111.65 224.892 83.8812 223.235 73.3276 221.073C69.0611 220.198 69.0203 220.243 71.543 223.06C73.891 225.682 78.3817 228.185 90.7956 233.793C94.0986 235.286 104.263 235.775 132.524 235.798C153.072 235.814 170.377 236.321 170.978 236.921C171.579 237.52 168.85 238.026 164.914 238.042C150.928 238.098 137.527 240.728 135.193 243.874C116.903 268.539 103.942 282.228 86.8668 294.909C80.7035 299.487 72.6799 304.37 69.0349 305.762C65.3914 307.155 62.4101 308.829 62.4101 309.486C62.4101 311.43 72.1238 312.667 79.1358 311.616C91.8801 309.704 105.681 301.279 120.785 286.191C128.473 278.511 137.892 267.968 141.716 262.763C145.616 257.455 148.174 254.898 147.54 256.94C144.77 265.882 128.336 287.305 114.951 299.42C110.083 303.825 106.478 307.81 106.939 308.272C108.507 309.838 124.235 303.498 132.008 298.163C142.523 290.95 154.969 277.039 162.8 263.746C166.375 257.678 169.572 252.984 169.902 253.316C170.886 254.3 160.754 274.53 155.143 282.783C152.286 286.987 150.257 290.426 150.634 290.426C152.64 290.426 162.704 284.276 166.543 280.706C173.076 274.626 182.188 261.72 186.659 252.208C188.823 247.604 191.228 243.836 192.002 243.836C192.778 243.836 195.911 246.094 198.963 248.853C203.825 253.246 207.103 258.703 213.44 272.955C214.931 276.307 215.066 276.069 215.156 269.947C215.212 266.29 214.543 259.447 213.673 254.738C208.438 226.416 191.414 214.282 136.936 200.045C127.572 197.599 113.686 193.97 106.08 191.983C82.3863 185.795 65.1453 179.711 50.037 172.206C38.1223 166.287 22.1624 156.09 18.7401 152.21C18.3398 151.755 16.7721 150.407 15.2553 149.212C12.6715 147.176 12.5681 147.268 13.6191 150.668Z" fill="#121212"/>
</svg>
