<svg width="49" height="61" viewBox="0 0 49 61" fill="none" xmlns="http://www.w3.org/2000/svg">
<path fill-rule="evenodd" clip-rule="evenodd" d="M0.984131 1.27753C0.242833 3.13177 0.0684756 7.45795 0.637399 9.88321C1.54711 13.7628 4.19416 18.0423 8.17266 22.0659C12.4393 26.3807 16.8228 29.4882 23.8817 33.2016C27.9259 35.3288 28.1331 35.6943 24.4181 34.1477C14.2961 29.9337 5.86668 24.0508 1.61363 18.2321C-0.214853 15.7306 -0.369397 15.8729 0.550504 19.2113C1.74609 23.5503 4.21454 26.8651 8.2621 29.5674C12.6606 32.5039 15.6012 33.7561 26.9952 37.5462C35.2828 40.3031 37.98 41.5505 40.0686 43.592C40.8956 44.4004 41.5721 44.9623 41.5721 44.8408C41.5721 43.8633 40.8676 41.3148 40.2902 40.2046C39.5192 38.7213 39.6907 38.4554 40.7128 39.5496L41.3675 40.2505L42.1897 39.002C43.3862 37.1859 45.4898 35.92 47.5628 35.7694C48.9489 35.6684 49.1716 35.5818 48.8979 35.2499C48.7171 35.031 48.0177 34.7122 47.3437 34.5414C46.1099 34.2292 45.0485 33.4404 45.8617 33.4404C46.0796 33.4404 46.5492 33.6456 46.9053 33.8964C47.2614 34.1472 47.6183 34.2864 47.6987 34.2058C48.0344 33.8679 46.8257 32.589 45.8654 32.2662C44.764 31.8958 38.1756 31.7339 38.1756 32.0772C38.1756 32.5318 39.4677 33.4446 40.3454 33.6103C40.8617 33.7077 41.2141 33.9015 41.1283 34.041C40.8775 34.4492 40.1393 34.3365 38.8031 33.686L37.5537 33.0777L36.4026 34.2354L35.2517 35.3931L32.2557 33.8685C30.6078 33.0299 27.5401 31.4876 25.4385 30.441C19.5446 27.5065 16.4586 25.3485 12.6887 21.5253C7.08236 15.8399 4.74978 11.4941 1.89724 1.41986L1.49503 0L0.984131 1.27753ZM2.64816 29.4575C3.45343 32.0746 5.47891 33.9707 9.72941 36.0851C14.1404 38.2795 20.7088 40.1651 26.6581 40.9444C28.3383 41.1645 29.7892 41.4215 29.8826 41.5152C30.1025 41.7366 25.9007 41.4785 23.1741 41.1033C18.1713 40.4144 14.1585 39.4372 9.50552 37.7748C7.98132 37.23 6.65242 36.8671 6.55193 36.9678C6.45174 37.0689 6.85168 37.6479 7.4407 38.2545C9.8381 40.7236 14.2049 42.0671 22.7495 42.9644C31.3199 43.8644 31.4314 43.8963 26.1461 43.9359C21.7096 43.9692 16.3102 43.6453 14.2582 43.2225C13.4285 43.0515 13.4206 43.0603 13.9111 43.6111C14.3677 44.1238 15.2409 44.6131 17.6547 45.7096C18.2969 46.0013 20.2735 46.097 25.7685 46.1015C29.764 46.1047 33.1288 46.2037 33.2457 46.321C33.3626 46.4383 32.8319 46.5371 32.0666 46.5402C29.3471 46.5513 26.7413 47.0654 26.2876 47.6805C22.7311 52.5028 20.2109 55.1792 16.8908 57.6585C15.6923 58.5535 14.1322 59.5082 13.4235 59.7803C12.715 60.0527 12.1353 60.3801 12.1353 60.5085C12.1353 60.8885 14.0241 61.1304 15.3875 60.9249C17.8656 60.5512 20.5491 58.9039 23.486 55.954C24.9808 54.4524 26.8124 52.3913 27.556 51.3736C28.3142 50.3358 28.8115 49.8359 28.6884 50.235C28.1498 51.9834 24.9542 56.1718 22.3516 58.5404C21.4051 59.4017 20.704 60.1808 20.7937 60.2711C21.0985 60.5774 24.1568 59.3377 25.6683 58.2947C27.7128 56.8845 30.1328 54.1647 31.6556 51.5658C32.3508 50.3793 32.9723 49.4616 33.0366 49.5265C33.2279 49.7189 31.2576 53.6742 30.1668 55.2876C29.6112 56.1097 29.2166 56.7821 29.2899 56.7821C29.6799 56.7821 31.6369 55.5797 32.3833 54.8817C33.6536 53.693 35.4255 51.1695 36.2947 49.3099C36.7156 48.4098 37.1832 47.6731 37.3338 47.6731C37.4847 47.6731 38.0938 48.1146 38.6873 48.654C39.6327 49.5128 40.2701 50.5797 41.5022 53.3662C41.7921 54.0215 41.8184 53.9751 41.8359 52.7781C41.8467 52.0631 41.7168 50.7252 41.5475 49.8046C40.5297 44.2672 37.2194 41.8949 26.6264 39.1113C24.8056 38.633 22.1056 37.9237 20.6267 37.5351C16.0196 36.3254 12.6671 35.1358 9.72941 33.6684C7.41268 32.5113 4.30936 30.5175 3.64392 29.7589C3.56608 29.6701 3.26124 29.4065 2.9663 29.1728C2.4639 28.7749 2.4438 28.7928 2.64816 29.4575Z" fill="#086AEB"/>
</svg>
